<svg xmlns="http://www.w3.org/2000/svg" width="65" height="58.677" viewBox="0 0 65 58.677">
  <path id="icon" d="M26.625,57.609,3.156,47.473C1.15,46.606,0,45.26,0,43.782s1.15-2.824,3.156-3.691l3.724-1.609,17.965,7.76A19.8,19.8,0,0,0,32.5,47.673a19.8,19.8,0,0,0,7.656-1.432l17.963-7.759,3.725,1.609C63.85,40.958,65,42.3,65,43.782s-1.15,2.824-3.156,3.691L38.375,57.609A15.281,15.281,0,0,1,32.5,58.677,15.284,15.284,0,0,1,26.625,57.609Zm0-14.443L3.156,33.03C1.15,32.163,0,30.819,0,29.339s1.15-2.824,3.156-3.691L6.881,24.04,24.845,31.8A19.784,19.784,0,0,0,32.5,33.233,19.78,19.78,0,0,0,40.155,31.8l17.964-7.76,3.725,1.609C63.849,26.516,65,27.86,65,29.339s-1.15,2.824-3.156,3.691L38.375,43.166A15.281,15.281,0,0,1,32.5,44.234,15.284,15.284,0,0,1,26.625,43.166Zm0-14.443L3.156,18.588C1.15,17.721,0,16.376,0,14.9s1.15-2.825,3.156-3.692L26.625,1.07A15.235,15.235,0,0,1,32.5,0a15.239,15.239,0,0,1,5.876,1.07L61.844,11.206C63.85,12.073,65,13.418,65,14.9s-1.151,2.823-3.157,3.69L38.375,28.724a15.215,15.215,0,0,1-5.875,1.07A15.218,15.218,0,0,1,26.625,28.724Z" fill="#fff"/>
</svg>
