<svg xmlns="http://www.w3.org/2000/svg" width="64.99" height="64.99" viewBox="0 0 64.99 64.99">
  <path id="icon" d="M45.941,64.99H12.326v-1.12a3.365,3.365,0,0,1,3.362-3.362H42.579a3.366,3.366,0,0,1,3.362,3.362v1.119Zm-8.277-6.724H20.6L22.1,53.784H36.17l1.494,4.481Zm18.362-6.722H2.241A2.244,2.244,0,0,1,0,49.3V8.964A2.244,2.244,0,0,1,2.241,6.723H26.892V11.2H6.723a2.244,2.244,0,0,0-2.241,2.241V42.579A2.244,2.244,0,0,0,6.723,44.82h44.82a2.244,2.244,0,0,0,2.242-2.241V33.616h4.482V49.3A2.244,2.244,0,0,1,56.026,51.544Zm-11.2-4.479v2.24h2.24v-2.24Zm-4.489,0v2.24h2.239v-2.24Zm-4.48,0v2.24H38.1v-2.24Zm15.688-4.486H6.723V13.446H26.892V30.253a3.366,3.366,0,0,0,3.362,3.362H51.543v8.962ZM47.065,38.1v2.24H49.3V38.1Zm-38.1,0v2.24h35.86V38.1Zm2.24-11.2v6.724H24.651V22.41H20.169V15.688H8.964v11.2Zm52.664,4.482H30.254a1.122,1.122,0,0,1-1.121-1.121v-5.6H64.99v5.6A1.122,1.122,0,0,1,63.869,31.374ZM33.615,26.9v2.24h26.89V26.9Zm-11.2,4.479H13.446V26.892h6.723V24.651H22.41v6.722Zm-4.485-6.729h-6.72v-6.72h6.72v6.719ZM64.99,22.41H29.133V1.12A1.122,1.122,0,0,1,30.254,0H63.869a1.122,1.122,0,0,1,1.12,1.12V22.409ZM40.338,2.669h0V19.741L57.411,11.2,40.338,2.669Z" fill="#fff"/>
</svg>
