<svg width="1440" height="210" viewBox="0 0 1440 210" fill="none" xmlns="http://www.w3.org/2000/svg">
<path d="M0 114L24 103.3C48 93 96 71 144 44.7C192 18 240 -13.9999 288 7.30005C336 29.0001 384 103 432 124.7C480 146 528 114 576 87.3C624 61 672 39 720 55.3C768 71 816 125 864 130C912 135 960 93 1008 82C1056 71 1104 93 1152 103.3C1200 114 1248 114 1296 103.3C1344 93 1392 71 1416 60.7L1440 50V210H1416C1392 210 1344 210 1296 210C1248 210 1200 210 1152 210C1104 210 1056 210 1008 210C960 210 912 210 864 210C816 210 768 210 720 210C672 210 624 210 576 210C528 210 480 210 432 210C384 210 336 210 288 210C240 210 192 210 144 210C96 210 48 210 24 210H0V114Z" fill="#132741"/>
</svg>
